<?xml version="1.0" encoding="UTF-8"?>
<svg version="1.1" xmlns="http://www.w3.org/2000/svg" width="512" height="512">
<path d="M0 0 C14.19 0 28.38 0 43 0 C43 16.83 43 33.66 43 51 C49.6 51 56.2 51 63 51 C63 34.17 63 17.34 63 0 C77.19 0 91.38 0 106 0 C106 16.83 106 33.66 106 51 C112.6 51 119.2 51 126 51 C126 34.17 126 17.34 126 0 C140.19 0 154.38 0 169 0 C169 16.83 169 33.66 169 51 C175.6 51 182.2 51 189 51 C189 34.17 189 17.34 189 0 C203.19 0 217.38 0 232 0 C232 16.83 232 33.66 232 51 C238.6 51 245.2 51 252 51 C252 34.17 252 17.34 252 0 C266.19 0 280.38 0 295 0 C295 16.83 295 33.66 295 51 C301.6 51 308.2 51 315 51 C315 34.17 315 17.34 315 0 C329.19 0 343.38 0 358 0 C358 16.83 358 33.66 358 51 C366.58 51 375.16 51 384 51 C384 59.58 384 68.16 384 77 C400.83 77 417.66 77 435 77 C435 91.19 435 105.38 435 120 C418.17 120 401.34 120 384 120 C384 126.6 384 133.2 384 140 C400.83 140 417.66 140 435 140 C435 154.19 435 168.38 435 183 C418.17 183 401.34 183 384 183 C384 189.6 384 196.2 384 203 C400.83 203 417.66 203 435 203 C435 217.19 435 231.38 435 246 C418.17 246 401.34 246 384 246 C384 252.6 384 259.2 384 266 C400.83 266 417.66 266 435 266 C435 280.19 435 294.38 435 309 C418.17 309 401.34 309 384 309 C384 315.6 384 322.2 384 329 C400.83 329 417.66 329 435 329 C435 343.19 435 357.38 435 372 C418.17 372 401.34 372 384 372 C384 372.99 384 373.98 384 375 C381.69 375 379.38 375 377 375 C377 379.62 377 384.24 377 389 C379.31 389 381.62 389 384 389 C384 389.99 384 390.98 384 392 C400.83 392 417.66 392 435 392 C435 406.19 435 420.38 435 435 C418.17 435 401.34 435 384 435 C384 443.58 384 452.16 384 461 C375.42 461 366.84 461 358 461 C358 477.83 358 494.66 358 512 C343.81 512 329.62 512 315 512 C315 495.17 315 478.34 315 461 C308.4 461 301.8 461 295 461 C295 477.83 295 494.66 295 512 C280.81 512 266.62 512 252 512 C252 495.17 252 478.34 252 461 C245.4 461 238.8 461 232 461 C232 477.83 232 494.66 232 512 C217.81 512 203.62 512 189 512 C189 495.17 189 478.34 189 461 C182.4 461 175.8 461 169 461 C169 477.83 169 494.66 169 512 C154.81 512 140.62 512 126 512 C126 495.17 126 478.34 126 461 C119.4 461 112.8 461 106 461 C106 477.83 106 494.66 106 512 C91.81 512 77.62 512 63 512 C63 495.17 63 478.34 63 461 C56.4 461 49.8 461 43 461 C43 477.83 43 494.66 43 512 C28.81 512 14.62 512 0 512 C0 495.17 0 478.34 0 461 C-8.58 461 -17.16 461 -26 461 C-26 452.42 -26 443.84 -26 435 C-42.83 435 -59.66 435 -77 435 C-77 420.81 -77 406.62 -77 392 C-60.17 392 -43.34 392 -26 392 C-26 385.4 -26 378.8 -26 372 C-42.83 372 -59.66 372 -77 372 C-77 357.81 -77 343.62 -77 329 C-60.17 329 -43.34 329 -26 329 C-26 322.4 -26 315.8 -26 309 C-42.83 309 -59.66 309 -77 309 C-77 294.81 -77 280.62 -77 266 C-60.17 266 -43.34 266 -26 266 C-26 259.4 -26 252.8 -26 246 C-42.83 246 -59.66 246 -77 246 C-77 231.81 -77 217.62 -77 203 C-60.17 203 -43.34 203 -26 203 C-26 196.4 -26 189.8 -26 183 C-42.83 183 -59.66 183 -77 183 C-77 168.81 -77 154.62 -77 140 C-60.17 140 -43.34 140 -26 140 C-26 133.4 -26 126.8 -26 120 C-42.83 120 -59.66 120 -77 120 C-77 105.81 -77 91.62 -77 77 C-60.17 77 -43.34 77 -26 77 C-26 68.42 -26 59.84 -26 51 C-17.42 51 -8.84 51 0 51 C0 34.17 0 17.34 0 0 Z " fill="#56A3FD" transform="translate(77,0)"/>
<path d="M0 0 C14.19 0 28.38 0 43 0 C43 16.83 43 33.66 43 51 C49.6 51 56.2 51 63 51 C63 34.17 63 17.34 63 0 C77.19 0 91.38 0 106 0 C106 16.83 106 33.66 106 51 C112.6 51 119.2 51 126 51 C126 34.17 126 17.34 126 0 C140.19 0 154.38 0 169 0 C169 16.83 169 33.66 169 51 C175.6 51 182.2 51 189 51 C189 34.17 189 17.34 189 0 C203.19 0 217.38 0 232 0 C232 16.83 232 33.66 232 51 C238.6 51 245.2 51 252 51 C252 34.17 252 17.34 252 0 C266.19 0 280.38 0 295 0 C295 16.83 295 33.66 295 51 C301.6 51 308.2 51 315 51 C315 34.17 315 17.34 315 0 C329.19 0 343.38 0 358 0 C358 16.83 358 33.66 358 51 C366.58 51 375.16 51 384 51 C384 59.58 384 68.16 384 77 C400.83 77 417.66 77 435 77 C435 91.19 435 105.38 435 120 C418.17 120 401.34 120 384 120 C384 126.6 384 133.2 384 140 C400.83 140 417.66 140 435 140 C435 154.19 435 168.38 435 183 C418.17 183 401.34 183 384 183 C384 189.6 384 196.2 384 203 C400.83 203 417.66 203 435 203 C435 217.19 435 231.38 435 246 C418.17 246 401.34 246 384 246 C384 252.6 384 259.2 384 266 C400.83 266 417.66 266 435 266 C435 280.19 435 294.38 435 309 C418.17 309 401.34 309 384 309 C384 315.6 384 322.2 384 329 C400.83 329 417.66 329 435 329 C435 343.19 435 357.38 435 372 C418.17 372 401.34 372 384 372 C384 372.99 384 373.98 384 375 C379.05 375 374.1 375 369 375 C369 273.03 369 171.06 369 66 C261.09 66 153.18 66 42 66 C42 74.25 42 82.5 42 91 C48.93 91 55.86 91 63 91 C63 123.67 63 156.34 63 190 C65.31 190 67.62 190 70 190 C70 194.95 70 199.9 70 205 C62.74 205 55.48 205 48 205 C48 172.33 48 139.66 48 106 C46.02 106 44.04 106 42 106 C42 143.29 42 180.58 42 219 C51.24 219 60.48 219 70 219 C70 224.28 70 229.56 70 235 C60.76 235 51.52 235 42 235 C42 239.29 42 243.58 42 248 C51.24 248 60.48 248 70 248 C70 253.28 70 258.56 70 264 C60.76 264 51.52 264 42 264 C42 268.29 42 272.58 42 277 C51.24 277 60.48 277 70 277 C70 281.95 70 286.9 70 292 C61.75 292 53.5 292 45 292 C45 313.78 45 335.56 45 358 C44.01 358 43.02 358 42 358 C42 373.84 42 389.68 42 406 C44.64 406 47.28 406 50 406 C50 373.33 50 340.66 50 307 C56.6 307 63.2 307 70 307 C70 311.62 70 316.24 70 321 C68.35 321 66.7 321 65 321 C65 354 65 387 65 421 C57.41 421 49.82 421 42 421 C42 429.25 42 437.5 42 446 C149.91 446 257.82 446 369 446 C369 427.52 369 409.04 369 390 C373.95 389.67 378.9 389.34 384 389 C384 389.99 384 390.98 384 392 C400.83 392 417.66 392 435 392 C435 406.19 435 420.38 435 435 C418.17 435 401.34 435 384 435 C384 443.58 384 452.16 384 461 C375.42 461 366.84 461 358 461 C358 477.83 358 494.66 358 512 C343.81 512 329.62 512 315 512 C315 495.17 315 478.34 315 461 C308.4 461 301.8 461 295 461 C295 477.83 295 494.66 295 512 C280.81 512 266.62 512 252 512 C252 495.17 252 478.34 252 461 C245.4 461 238.8 461 232 461 C232 477.83 232 494.66 232 512 C217.81 512 203.62 512 189 512 C189 495.17 189 478.34 189 461 C182.4 461 175.8 461 169 461 C169 477.83 169 494.66 169 512 C154.81 512 140.62 512 126 512 C126 495.17 126 478.34 126 461 C119.4 461 112.8 461 106 461 C106 477.83 106 494.66 106 512 C91.81 512 77.62 512 63 512 C63 495.17 63 478.34 63 461 C56.4 461 49.8 461 43 461 C43 477.83 43 494.66 43 512 C28.81 512 14.62 512 0 512 C0 495.17 0 478.34 0 461 C-8.58 461 -17.16 461 -26 461 C-26 452.42 -26 443.84 -26 435 C-42.83 435 -59.66 435 -77 435 C-77 420.81 -77 406.62 -77 392 C-60.17 392 -43.34 392 -26 392 C-26 385.4 -26 378.8 -26 372 C-42.83 372 -59.66 372 -77 372 C-77 357.81 -77 343.62 -77 329 C-60.17 329 -43.34 329 -26 329 C-26 322.4 -26 315.8 -26 309 C-42.83 309 -59.66 309 -77 309 C-77 294.81 -77 280.62 -77 266 C-60.17 266 -43.34 266 -26 266 C-26 259.4 -26 252.8 -26 246 C-42.83 246 -59.66 246 -77 246 C-77 231.81 -77 217.62 -77 203 C-60.17 203 -43.34 203 -26 203 C-26 196.4 -26 189.8 -26 183 C-42.83 183 -59.66 183 -77 183 C-77 168.81 -77 154.62 -77 140 C-60.17 140 -43.34 140 -26 140 C-26 133.4 -26 126.8 -26 120 C-42.83 120 -59.66 120 -77 120 C-77 105.81 -77 91.62 -77 77 C-60.17 77 -43.34 77 -26 77 C-26 68.42 -26 59.84 -26 51 C-17.42 51 -8.84 51 0 51 C0 34.17 0 17.34 0 0 Z " fill="#1D1D1F" transform="translate(77,0)"/>
<path d="M0 0 C17.49 0 34.98 0 53 0 C53 8.25 53 16.5 53 25 C59.93 25 66.86 25 74 25 C74 57.67 74 90.34 74 124 C76.31 124 78.62 124 81 124 C81 128.95 81 133.9 81 139 C73.74 139 66.48 139 59 139 C59 106.33 59 73.66 59 40 C57.02 40 55.04 40 53 40 C53 77.29 53 114.58 53 153 C62.24 153 71.48 153 81 153 C81 158.28 81 163.56 81 169 C71.76 169 62.52 169 53 169 C53 173.29 53 177.58 53 182 C62.24 182 71.48 182 81 182 C81 187.28 81 192.56 81 198 C71.76 198 62.52 198 53 198 C53 202.29 53 206.58 53 211 C62.24 211 71.48 211 81 211 C81 215.95 81 220.9 81 226 C72.75 226 64.5 226 56 226 C56 247.78 56 269.56 56 292 C55.01 292 54.02 292 53 292 C53 307.84 53 323.68 53 340 C55.64 340 58.28 340 61 340 C61 307.33 61 274.66 61 241 C67.6 241 74.2 241 81 241 C81 245.62 81 250.24 81 255 C79.35 255 77.7 255 76 255 C76 288 76 321 76 355 C68.41 355 60.82 355 53 355 C53 363.25 53 371.5 53 380 C35.51 380 18.02 380 0 380 C0 254.6 0 129.2 0 0 Z " fill="#016CEE" transform="translate(66,66)"/>
<path d="M0 0 C43.56 0 87.12 0 132 0 C132 43.56 132 87.12 132 132 C88.44 132 44.88 132 0 132 C0 88.44 0 44.88 0 0 Z " fill="#FEB655" transform="translate(190,190)"/>
<path d="M0 0 C5.28 0 10.56 0 16 0 C16 5.94 16 11.88 16 18 C20.29 18 24.58 18 29 18 C29 12.06 29 6.12 29 0 C34.28 0 39.56 0 45 0 C45 5.94 45 11.88 45 18 C49.29 18 53.58 18 58 18 C58 12.06 58 6.12 58 0 C63.28 0 68.56 0 74 0 C74 5.94 74 11.88 74 18 C78.29 18 82.58 18 87 18 C87 12.06 87 6.12 87 0 C92.28 0 97.56 0 103 0 C103 5.94 103 11.88 103 18 C107.29 18 111.58 18 116 18 C116 12.06 116 6.12 116 0 C121.28 0 126.56 0 132 0 C132 5.94 132 11.88 132 18 C136.95 18 141.9 18 147 18 C147 23.28 147 28.56 147 34 C152.94 34 158.88 34 165 34 C165 38.62 165 43.24 165 48 C159.06 48 153.12 48 147 48 C147 52.95 147 57.9 147 63 C152.94 63 158.88 63 165 63 C165 67.62 165 72.24 165 77 C159.06 77 153.12 77 147 77 C147 81.95 147 86.9 147 92 C152.94 92 158.88 92 165 92 C165 96.62 165 101.24 165 106 C159.06 106 153.12 106 147 106 C147 110.95 147 115.9 147 121 C152.94 121 158.88 121 165 121 C165 125.62 165 130.24 165 135 C159.06 135 153.12 135 147 135 C147 139.95 147 144.9 147 150 C152.94 150 158.88 150 165 150 C165 154.62 165 159.24 165 164 C159.06 164 153.12 164 147 164 C147 169.28 147 174.56 147 180 C142.05 180 137.1 180 132 180 C132 185.94 132 191.88 132 198 C126.72 198 121.44 198 116 198 C116 192.06 116 186.12 116 180 C111.71 180 107.42 180 103 180 C103 185.94 103 191.88 103 198 C97.72 198 92.44 198 87 198 C87 192.06 87 186.12 87 180 C82.71 180 78.42 180 74 180 C74 185.94 74 191.88 74 198 C68.72 198 63.44 198 58 198 C58 192.06 58 186.12 58 180 C53.71 180 49.42 180 45 180 C45 185.94 45 191.88 45 198 C39.72 198 34.44 198 29 198 C29 192.06 29 186.12 29 180 C24.71 180 20.42 180 16 180 C16 185.94 16 191.88 16 198 C10.72 198 5.44 198 0 198 C0 192.06 0 186.12 0 180 C-4.95 180 -9.9 180 -15 180 C-15 174.72 -15 169.44 -15 164 C-20.94 164 -26.88 164 -33 164 C-33 159.05 -33 154.1 -33 149 C-27.06 149 -21.12 149 -15 149 C-15 144.38 -15 139.76 -15 135 C-20.94 135 -26.88 135 -33 135 C-33 130.05 -33 125.1 -33 120 C-27.06 120 -21.12 120 -15 120 C-15 115.38 -15 110.76 -15 106 C-20.94 106 -26.88 106 -33 106 C-33 101.05 -33 96.1 -33 91 C-27.06 91 -21.12 91 -15 91 C-15 86.38 -15 81.76 -15 77 C-20.94 77 -26.88 77 -33 77 C-33 72.05 -33 67.1 -33 62 C-27.06 62 -21.12 62 -15 62 C-15 57.38 -15 52.76 -15 48 C-20.94 48 -26.88 48 -33 48 C-33 43.05 -33 38.1 -33 33 C-27.06 33 -21.12 33 -15 33 C-15 28.05 -15 23.1 -15 18 C-10.05 18 -5.1 18 0 18 C0 12.06 0 6.12 0 0 Z M0 33 C0 76.56 0 120.12 0 165 C43.56 165 87.12 165 132 165 C132 121.44 132 77.88 132 33 C88.44 33 44.88 33 0 33 Z " fill="#1E1F22" transform="translate(190,157)"/>
<path d="M0 0 C20.46 0 40.92 0 62 0 C62 32.67 62 65.34 62 99 C64.31 99 66.62 99 69 99 C69 103.95 69 108.9 69 114 C61.74 114 54.48 114 47 114 C47 81.33 47 48.66 47 15 C31.49 15 15.98 15 0 15 C0 10.05 0 5.1 0 0 Z " fill="#1E1F23" transform="translate(78,91)"/>
<path d="M0 0 C6.6 0 13.2 0 20 0 C20 4.62 20 9.24 20 14 C18.35 14 16.7 14 15 14 C15 47 15 80 15 114 C-6.12 114 -27.24 114 -49 114 C-49 109.05 -49 104.1 -49 99 C-32.83 99 -16.66 99 0 99 C0 66.33 0 33.66 0 0 Z " fill="#1D1D20" transform="translate(127,307)"/>
<path d="M0 0 C16.17 0 32.34 0 49 0 C49 16.17 49 32.34 49 49 C32.83 49 16.66 49 0 49 C0 32.83 0 16.66 0 0 Z " fill="#1E2024" transform="translate(379,134)"/>
<path d="M0 0 C15.84 0 31.68 0 48 0 C48 15.84 48 31.68 48 48 C32.16 48 16.32 48 0 48 C0 32.16 0 16.32 0 0 Z " fill="#1D1C1F" transform="translate(380,191)"/>
<path d="M0 0 C44.55 0 89.1 0 135 0 C135 4.95 135 9.9 135 15 C90.45 15 45.9 15 0 15 C0 10.05 0 5.1 0 0 Z " fill="#FFFFFF" transform="translate(287,91)"/>
<path d="M0 0 C13.2 0 26.4 0 40 0 C40 4.62 40 9.24 40 14 C31.75 14 23.5 14 15 14 C15 35.78 15 57.56 15 80 C0.48 80 -14.04 80 -29 80 C-29 75.05 -29 70.1 -29 65 C-19.43 65 -9.86 65 0 65 C0 43.55 0 22.1 0 0 Z " fill="#1C1D1F" transform="translate(107,278)"/>
<path d="M0 0 C12.54 0 25.08 0 38 0 C38 21.78 38 43.56 38 66 C48.23 66 58.46 66 69 66 C69 70.62 69 75.24 69 80 C53.82 80 38.64 80 23 80 C23 58.55 23 37.1 23 15 C15.41 15 7.82 15 0 15 C0 10.05 0 5.1 0 0 Z " fill="#1D1D1F" transform="translate(78,154)"/>
<path d="M0 0 C3.96 0 7.92 0 12 0 C12 43.56 12 87.12 12 132 C8.04 132 4.08 132 0 132 C0 88.44 0 44.88 0 0 Z " fill="#FF9811" transform="translate(190,190)"/>
<path d="M0 0 C19.8 0 39.6 0 60 0 C60 4.62 60 9.24 60 14 C45.15 14 30.3 14 15 14 C15 24.56 15 35.12 15 46 C7.08 46 -0.84 46 -9 46 C-9 41.05 -9 36.1 -9 31 C-6.03 31 -3.06 31 0 31 C0 20.77 0 10.54 0 0 Z " fill="#1C1D1F" transform="translate(87,249)"/>
<path d="M0 0 C4.95 0 9.9 0 15 0 C15 20.79 15 41.58 15 63 C10.05 63 5.1 63 0 63 C0 42.21 0 21.42 0 0 Z " fill="#1D1D1F" transform="translate(406,278)"/>
<path d="M0 0 C18.48 0 36.96 0 56 0 C56 4.95 56 9.9 56 15 C37.52 15 19.04 15 0 15 C0 10.05 0 5.1 0 0 Z " fill="#FFFFFF" transform="translate(186,406)"/>
<path d="M0 0 C4.95 0 9.9 0 15 0 C15 13.86 15 27.72 15 42 C10.05 42 5.1 42 0 42 C0 28.14 0 14.28 0 0 Z " fill="#FFFDFA" transform="translate(294,260)"/>
<path d="M0 0 C11.22 0 22.44 0 34 0 C34 5.28 34 10.56 34 16 C22.78 16 11.56 16 0 16 C0 10.72 0 5.44 0 0 Z " fill="#2D2822" transform="translate(204,294)"/>
<path d="M0 0 C4.29 0 8.58 0 13 0 C13 11.88 13 23.76 13 36 C8.71 36 4.42 36 0 36 C0 24.12 0 12.24 0 0 Z " fill="#F3CA21" transform="translate(407,461)"/>
<path d="M0 0 C4.29 0 8.58 0 13 0 C13 11.88 13 23.76 13 36 C8.71 36 4.42 36 0 36 C0 24.12 0 12.24 0 0 Z " fill="#F3CA21" transform="translate(344,461)"/>
<path d="M0 0 C4.29 0 8.58 0 13 0 C13 11.88 13 23.76 13 36 C8.71 36 4.42 36 0 36 C0 24.12 0 12.24 0 0 Z " fill="#F3CA21" transform="translate(281,461)"/>
<path d="M0 0 C4.29 0 8.58 0 13 0 C13 11.88 13 23.76 13 36 C8.71 36 4.42 36 0 36 C0 24.12 0 12.24 0 0 Z " fill="#F3CA21" transform="translate(218,461)"/>
<path d="M0 0 C4.29 0 8.58 0 13 0 C13 11.88 13 23.76 13 36 C8.71 36 4.42 36 0 36 C0 24.12 0 12.24 0 0 Z " fill="#F3CA21" transform="translate(155,461)"/>
<path d="M0 0 C4.29 0 8.58 0 13 0 C13 11.88 13 23.76 13 36 C8.71 36 4.42 36 0 36 C0 24.12 0 12.24 0 0 Z " fill="#F3CA21" transform="translate(92,461)"/>
<path d="M0 0 C11.88 0 23.76 0 36 0 C36 4.29 36 8.58 36 13 C24.12 13 12.24 13 0 13 C0 8.71 0 4.42 0 0 Z " fill="#FFE375" transform="translate(461,407)"/>
<path d="M0 0 C11.88 0 23.76 0 36 0 C36 4.29 36 8.58 36 13 C24.12 13 12.24 13 0 13 C0 8.71 0 4.42 0 0 Z " fill="#FFE477" transform="translate(15,407)"/>
<path d="M0 0 C11.88 0 23.76 0 36 0 C36 4.29 36 8.58 36 13 C24.12 13 12.24 13 0 13 C0 8.71 0 4.42 0 0 Z " fill="#FFE375" transform="translate(461,344)"/>
<path d="M0 0 C11.88 0 23.76 0 36 0 C36 4.29 36 8.58 36 13 C24.12 13 12.24 13 0 13 C0 8.71 0 4.42 0 0 Z " fill="#FFE477" transform="translate(15,344)"/>
<path d="M0 0 C11.88 0 23.76 0 36 0 C36 4.29 36 8.58 36 13 C24.12 13 12.24 13 0 13 C0 8.71 0 4.42 0 0 Z " fill="#FFE375" transform="translate(461,281)"/>
<path d="M0 0 C11.88 0 23.76 0 36 0 C36 4.29 36 8.58 36 13 C24.12 13 12.24 13 0 13 C0 8.71 0 4.42 0 0 Z " fill="#FFE477" transform="translate(15,281)"/>
<path d="M0 0 C11.88 0 23.76 0 36 0 C36 4.29 36 8.58 36 13 C24.12 13 12.24 13 0 13 C0 8.71 0 4.42 0 0 Z " fill="#FFE375" transform="translate(461,218)"/>
<path d="M0 0 C11.88 0 23.76 0 36 0 C36 4.29 36 8.58 36 13 C24.12 13 12.24 13 0 13 C0 8.71 0 4.42 0 0 Z " fill="#FFE477" transform="translate(15,218)"/>
<path d="M0 0 C11.88 0 23.76 0 36 0 C36 4.29 36 8.58 36 13 C24.12 13 12.24 13 0 13 C0 8.71 0 4.42 0 0 Z " fill="#FFE375" transform="translate(461,155)"/>
<path d="M0 0 C11.88 0 23.76 0 36 0 C36 4.29 36 8.58 36 13 C24.12 13 12.24 13 0 13 C0 8.71 0 4.42 0 0 Z " fill="#FFE477" transform="translate(15,155)"/>
<path d="M0 0 C11.88 0 23.76 0 36 0 C36 4.29 36 8.58 36 13 C24.12 13 12.24 13 0 13 C0 8.71 0 4.42 0 0 Z " fill="#FFE375" transform="translate(461,92)"/>
<path d="M0 0 C11.88 0 23.76 0 36 0 C36 4.29 36 8.58 36 13 C24.12 13 12.24 13 0 13 C0 8.71 0 4.42 0 0 Z " fill="#FFE477" transform="translate(15,92)"/>
<path d="M0 0 C4.29 0 8.58 0 13 0 C13 11.88 13 23.76 13 36 C8.71 36 4.42 36 0 36 C0 24.12 0 12.24 0 0 Z " fill="#F3CA21" transform="translate(407,15)"/>
<path d="M0 0 C4.29 0 8.58 0 13 0 C13 11.88 13 23.76 13 36 C8.71 36 4.42 36 0 36 C0 24.12 0 12.24 0 0 Z " fill="#F3CA21" transform="translate(344,15)"/>
<path d="M0 0 C4.29 0 8.58 0 13 0 C13 11.88 13 23.76 13 36 C8.71 36 4.42 36 0 36 C0 24.12 0 12.24 0 0 Z " fill="#F3CA21" transform="translate(281,15)"/>
<path d="M0 0 C4.29 0 8.58 0 13 0 C13 11.88 13 23.76 13 36 C8.71 36 4.42 36 0 36 C0 24.12 0 12.24 0 0 Z " fill="#F3CA21" transform="translate(218,15)"/>
<path d="M0 0 C4.29 0 8.58 0 13 0 C13 11.88 13 23.76 13 36 C8.71 36 4.42 36 0 36 C0 24.12 0 12.24 0 0 Z " fill="#F3CA21" transform="translate(155,15)"/>
<path d="M0 0 C4.29 0 8.58 0 13 0 C13 11.88 13 23.76 13 36 C8.71 36 4.42 36 0 36 C0 24.12 0 12.24 0 0 Z " fill="#F3CA21" transform="translate(92,15)"/>
<path d="M0 0 C4.29 0 8.58 0 13 0 C13.02465288 4.68139254 13.04283739 9.36274759 13.05493164 14.04418945 C13.05997157 15.63794614 13.0668035 17.23169819 13.07543945 18.82543945 C13.08751999 21.11150253 13.09323155 23.39750467 13.09765625 25.68359375 C13.10281754 26.40026718 13.10797882 27.11694061 13.11329651 27.85533142 C13.11349263 29.57063672 13.06192007 31.28581266 13 33 C12.505 33.495 12.505 33.495 12 34 C8.04 34 4.08 34 0 34 C0 22.78 0 11.56 0 0 Z " fill="#76B7EC" transform="translate(428,198)"/>
<path d="M0 0 C3.96 0 7.92 0 12 0 C12 10.89 12 21.78 12 33 C8.04 33 4.08 33 0 33 C0 22.11 0 11.22 0 0 Z " fill="#78B9EB" transform="translate(428,142)"/>
<path d="M0 0 C6.27 0 12.54 0 19 0 C19 6.27 19 12.54 19 19 C12.73 19 6.46 19 0 19 C0 12.73 0 6.46 0 0 Z " fill="#BC0123" transform="translate(394,149)"/>
<path d="M0 0 C0.74886475 0.00523682 1.49772949 0.01047363 2.26928711 0.01586914 C3.36188843 0.01961548 3.36188843 0.01961548 4.4765625 0.0234375 C5.40718506 0.0325415 6.33780762 0.04164551 7.29663086 0.05102539 C11.72069336 0.08196289 11.72069336 0.08196289 16.23413086 0.11352539 C16.23413086 6.38352539 16.23413086 12.65352539 16.23413086 19.11352539 C9.96413086 19.11352539 3.69413086 19.11352539 -2.76586914 19.11352539 C-2.78649414 16.16415039 -2.80711914 13.21477539 -2.82836914 10.17602539 C-2.83747314 9.24540283 -2.84657715 8.31478027 -2.85595703 7.35595703 C-2.85845459 6.62755615 -2.86095215 5.89915527 -2.86352539 5.14868164 C-2.86876221 4.39981689 -2.87399902 3.65095215 -2.87939453 2.87939453 C-2.72446543 0.46949736 -2.40989717 0.1549291 0 0 Z " fill="#BB0224" transform="translate(396.765869140625,204.886474609375)"/>
<path d="M0 0 C4.95 0 9.9 0 15 0 C15 4.95 15 9.9 15 15 C10.05 15 5.1 15 0 15 C0 10.05 0 5.1 0 0 Z " fill="#1D1D20" transform="translate(406,406)"/>
<path d="M0 0 C4.95 0 9.9 0 15 0 C15 4.95 15 9.9 15 15 C10.05 15 5.1 15 0 15 C0 10.05 0 5.1 0 0 Z " fill="#1D1D20" transform="translate(381,406)"/>
<path d="M0 0 C4.95 0 9.9 0 15 0 C15 4.95 15 9.9 15 15 C10.05 15 5.1 15 0 15 C0 10.05 0 5.1 0 0 Z " fill="#1D1D20" transform="translate(356,406)"/>
<path d="M0 0 C4.95 0 9.9 0 15 0 C15 4.95 15 9.9 15 15 C10.05 15 5.1 15 0 15 C0 10.05 0 5.1 0 0 Z " fill="#1D1D20" transform="translate(331,406)"/>
<path d="M0 0 C4.95 0 9.9 0 15 0 C15 4.95 15 9.9 15 15 C10.05 15 5.1 15 0 15 C0 10.05 0 5.1 0 0 Z " fill="#FBFCFF" transform="translate(277,406)"/>
<path d="M0 0 C4.95 0 9.9 0 15 0 C15 4.95 15 9.9 15 15 C10.05 15 5.1 15 0 15 C0 10.05 0 5.1 0 0 Z " fill="#FBFCFF" transform="translate(252,406)"/>
<path d="M0 0 C4.95 0 9.9 0 15 0 C15 4.95 15 9.9 15 15 C10.05 15 5.1 15 0 15 C0 10.05 0 5.1 0 0 Z " fill="#1D1F22" transform="translate(406,380)"/>
<path d="M0 0 C4.95 0 9.9 0 15 0 C15 4.95 15 9.9 15 15 C10.05 15 5.1 15 0 15 C0 10.05 0 5.1 0 0 Z " fill="#1D1F22" transform="translate(381,380)"/>
<path d="M0 0 C4.95 0 9.9 0 15 0 C15 4.95 15 9.9 15 15 C10.05 15 5.1 15 0 15 C0 10.05 0 5.1 0 0 Z " fill="#1D1F22" transform="translate(356,380)"/>
<path d="M0 0 C4.95 0 9.9 0 15 0 C15 4.95 15 9.9 15 15 C10.05 15 5.1 15 0 15 C0 10.05 0 5.1 0 0 Z " fill="#1D1F22" transform="translate(331,380)"/>
<path d="M0 0 C4.95 0 9.9 0 15 0 C15 4.95 15 9.9 15 15 C10.05 15 5.1 15 0 15 C0 10.05 0 5.1 0 0 Z " fill="#FFFCFA" transform="translate(294,235)"/>
<path d="M0 0 C4.95 0 9.9 0 15 0 C15 4.95 15 9.9 15 15 C10.05 15 5.1 15 0 15 C0 10.05 0 5.1 0 0 Z " fill="#FFFCFA" transform="translate(294,210)"/>
<path d="M0 0 C4.95 0 9.9 0 15 0 C15 4.95 15 9.9 15 15 C10.05 15 5.1 15 0 15 C0 10.05 0 5.1 0 0 Z " fill="#1D1D1F" transform="translate(253,200)"/>
<path d="M0 0 C4.95 0 9.9 0 15 0 C15 4.95 15 9.9 15 15 C10.05 15 5.1 15 0 15 C0 10.05 0 5.1 0 0 Z " fill="#1D1D1F" transform="translate(228,200)"/>
<path d="M0 0 C4.95 0 9.9 0 15 0 C15 4.95 15 9.9 15 15 C10.05 15 5.1 15 0 15 C0 10.05 0 5.1 0 0 Z " fill="#1D1D1F" transform="translate(203,200)"/>
<path d="M0 0 C4.95 0 9.9 0 15 0 C15 4.95 15 9.9 15 15 C10.05 15 5.1 15 0 15 C0 10.05 0 5.1 0 0 Z " fill="#FDFEFF" transform="translate(262,91)"/>
<path d="M0 0 C4.95 0 9.9 0 15 0 C15 4.95 15 9.9 15 15 C10.05 15 5.1 15 0 15 C0 10.05 0 5.1 0 0 Z " fill="#FDFEFF" transform="translate(237,91)"/>
<path d="M0 0 C11.88 0 23.76 0 36 0 C36 0.33 36 0.66 36 1 C28.41 1 20.82 1 13 1 C13 4.63 13 8.26 13 12 C20.59 12 28.18 12 36 12 C36 12.33 36 12.66 36 13 C24.12 13 12.24 13 0 13 C0 8.71 0 4.42 0 0 Z " fill="#E4C130" transform="translate(15,407)"/>
<path d="M0 0 C11.88 0 23.76 0 36 0 C36 0.33 36 0.66 36 1 C28.41 1 20.82 1 13 1 C13 4.63 13 8.26 13 12 C20.59 12 28.18 12 36 12 C36 12.33 36 12.66 36 13 C24.12 13 12.24 13 0 13 C0 8.71 0 4.42 0 0 Z " fill="#E4C130" transform="translate(15,344)"/>
<path d="M0 0 C11.88 0 23.76 0 36 0 C36 0.33 36 0.66 36 1 C28.41 1 20.82 1 13 1 C13 4.63 13 8.26 13 12 C20.59 12 28.18 12 36 12 C36 12.33 36 12.66 36 13 C24.12 13 12.24 13 0 13 C0 8.71 0 4.42 0 0 Z " fill="#E4C130" transform="translate(15,281)"/>
<path d="M0 0 C11.88 0 23.76 0 36 0 C36 0.33 36 0.66 36 1 C28.41 1 20.82 1 13 1 C13 4.63 13 8.26 13 12 C20.59 12 28.18 12 36 12 C36 12.33 36 12.66 36 13 C24.12 13 12.24 13 0 13 C0 8.71 0 4.42 0 0 Z " fill="#E4C130" transform="translate(15,218)"/>
<path d="M0 0 C11.88 0 23.76 0 36 0 C36 0.33 36 0.66 36 1 C28.41 1 20.82 1 13 1 C13 4.63 13 8.26 13 12 C20.59 12 28.18 12 36 12 C36 12.33 36 12.66 36 13 C24.12 13 12.24 13 0 13 C0 8.71 0 4.42 0 0 Z " fill="#E4C130" transform="translate(15,155)"/>
<path d="M0 0 C11.88 0 23.76 0 36 0 C36 0.33 36 0.66 36 1 C28.41 1 20.82 1 13 1 C13 4.63 13 8.26 13 12 C20.59 12 28.18 12 36 12 C36 12.33 36 12.66 36 13 C24.12 13 12.24 13 0 13 C0 8.71 0 4.42 0 0 Z " fill="#E4C130" transform="translate(15,92)"/>
<path d="M0 0 C11.88 0 23.76 0 36 0 C36 0.33 36 0.66 36 1 C28.08 1 20.16 1 12 1 C12 4.63 12 8.26 12 12 C19.92 12 27.84 12 36 12 C36 12.33 36 12.66 36 13 C24.12 13 12.24 13 0 13 C0 8.71 0 4.42 0 0 Z " fill="#E3C02E" transform="translate(461,407)"/>
<path d="M0 0 C11.88 0 23.76 0 36 0 C36 0.33 36 0.66 36 1 C28.08 1 20.16 1 12 1 C12 4.63 12 8.26 12 12 C19.92 12 27.84 12 36 12 C36 12.33 36 12.66 36 13 C24.12 13 12.24 13 0 13 C0 8.71 0 4.42 0 0 Z " fill="#E3C02E" transform="translate(461,344)"/>
<path d="M0 0 C11.88 0 23.76 0 36 0 C36 0.33 36 0.66 36 1 C28.08 1 20.16 1 12 1 C12 4.63 12 8.26 12 12 C19.92 12 27.84 12 36 12 C36 12.33 36 12.66 36 13 C24.12 13 12.24 13 0 13 C0 8.71 0 4.42 0 0 Z " fill="#E3C02E" transform="translate(461,281)"/>
<path d="M0 0 C11.88 0 23.76 0 36 0 C36 0.33 36 0.66 36 1 C28.08 1 20.16 1 12 1 C12 4.63 12 8.26 12 12 C19.92 12 27.84 12 36 12 C36 12.33 36 12.66 36 13 C24.12 13 12.24 13 0 13 C0 8.71 0 4.42 0 0 Z " fill="#E3C02E" transform="translate(461,218)"/>
<path d="M0 0 C11.88 0 23.76 0 36 0 C36 0.33 36 0.66 36 1 C28.08 1 20.16 1 12 1 C12 4.63 12 8.26 12 12 C19.92 12 27.84 12 36 12 C36 12.33 36 12.66 36 13 C24.12 13 12.24 13 0 13 C0 8.71 0 4.42 0 0 Z " fill="#E3C02E" transform="translate(461,155)"/>
<path d="M0 0 C11.88 0 23.76 0 36 0 C36 0.33 36 0.66 36 1 C28.08 1 20.16 1 12 1 C12 4.63 12 8.26 12 12 C19.92 12 27.84 12 36 12 C36 12.33 36 12.66 36 13 C24.12 13 12.24 13 0 13 C0 8.71 0 4.42 0 0 Z " fill="#E3C02E" transform="translate(461,92)"/>
<path d="M0 0 C4.29 0 8.58 0 13 0 C13 4.29 13 8.58 13 13 C8.71 13 4.42 13 0 13 C0 8.71 0 4.42 0 0 Z " fill="#76B7EA" transform="translate(337,293)"/>
<path d="M0 0 C4.29 0 8.58 0 13 0 C13 4.29 13 8.58 13 13 C8.71 13 4.42 13 0 13 C0 8.71 0 4.42 0 0 Z " fill="#76B7EA" transform="translate(337,264)"/>
<path d="M0 0 C4.29 0 8.58 0 13 0 C13 4.29 13 8.58 13 13 C8.71 13 4.42 13 0 13 C0 8.71 0 4.42 0 0 Z " fill="#76B7EA" transform="translate(337,235)"/>
<path d="M0 0 C4.29 0 8.58 0 13 0 C13 4.29 13 8.58 13 13 C8.71 13 4.42 13 0 13 C0 8.71 0 4.42 0 0 Z " fill="#76B7EA" transform="translate(337,206)"/>
<path d="M0 0 C1.98 0 3.96 0 6 0 C6 6.27 6 12.54 6 19 C4.02 19 2.04 19 0 19 C0 12.73 0 6.46 0 0 Z " fill="#F93E60" transform="translate(407,149)"/>
<path d="M0 0 C1.98 0 3.96 0 6 0 C6 5.94 6 11.88 6 18 C4.02 18 2.04 18 0 18 C0 12.06 0 6.12 0 0 Z " fill="#FF3F62" transform="translate(407,206)"/>
<path d="M0 0 C4.29 0 8.58 0 13 0 C13 2.64 13 5.28 13 8 C8.71 8 4.42 8 0 8 C0 5.36 0 2.72 0 0 Z " fill="#74B6EB" transform="translate(337,322)"/>
<path d="M0 0 C4.29 0 8.58 0 13 0 C13 2.64 13 5.28 13 8 C8.71 8 4.42 8 0 8 C0 5.36 0 2.72 0 0 Z " fill="#74B6EB" transform="translate(337,182)"/>
</svg>
